# Blender v2.90.1 OBJ File: 'untitled.blend'
# www.blender.org
mtllib bastya.mtl
o Cylinder
v 0.000000 -1.000000 -0.463210
v 0.000000 1.000000 -0.415551
v 0.087220 -1.000000 -0.454309
v 0.078246 1.000000 -0.407566
v 0.171088 -1.000000 -0.427950
v 0.153485 1.000000 -0.383919
v 0.248381 -1.000000 -0.385145
v 0.222825 1.000000 -0.345518
v 0.316129 -1.000000 -0.327539
v 0.283603 1.000000 -0.293839
v 0.371729 -1.000000 -0.257346
v 0.333482 1.000000 -0.230868
v 0.413043 -1.000000 -0.177263
v 0.370545 1.000000 -0.159024
v 0.438484 -1.000000 -0.090368
v 0.393369 1.000000 -0.081070
v 0.447074 -1.000000 -0.000000
v 0.401075 1.000000 -0.000000
v 0.438484 -1.000000 0.090367
v 0.393369 1.000000 0.081070
v 0.413043 -1.000000 0.177262
v 0.370545 1.000000 0.159024
v 0.371729 -1.000000 0.257345
v 0.333482 1.000000 0.230867
v 0.316129 -1.000000 0.327538
v 0.283603 1.000000 0.293838
v 0.248381 -1.000000 0.385144
v 0.222825 1.000000 0.345517
v 0.171088 -1.000000 0.427950
v 0.153485 1.000000 0.383918
v 0.087220 -1.000000 0.454309
v 0.078246 1.000000 0.407566
v -0.000000 -1.000000 0.463209
v -0.000000 1.000000 0.415550
v -0.087220 -1.000000 0.454309
v -0.078246 1.000000 0.407565
v -0.171088 -1.000000 0.427949
v -0.153485 1.000000 0.383918
v -0.248381 -1.000000 0.385144
v -0.222826 1.000000 0.345517
v -0.316129 -1.000000 0.327538
v -0.283603 1.000000 0.293838
v -0.371729 -1.000000 0.257345
v -0.333482 1.000000 0.230867
v -0.413043 -1.000000 0.177262
v -0.370545 1.000000 0.159024
v -0.438484 -1.000000 0.090367
v -0.393369 1.000000 0.081069
v -0.447074 -1.000000 -0.000001
v -0.401075 1.000000 -0.000001
v -0.438484 -1.000000 -0.090368
v -0.393368 1.000000 -0.081070
v -0.413042 -1.000000 -0.177263
v -0.370545 1.000000 -0.159025
v -0.371728 -1.000000 -0.257346
v -0.333481 1.000000 -0.230868
v -0.316129 -1.000000 -0.327539
v -0.283603 1.000000 -0.293839
v -0.248381 -1.000000 -0.385145
v -0.222825 1.000000 -0.345518
v -0.171087 -1.000000 -0.427950
v -0.153484 1.000000 -0.383919
v -0.087219 -1.000000 -0.454309
v -0.078245 1.000000 -0.407566
v 0.087220 1.000000 -0.454309
v 0.000000 1.000000 -0.463210
v 0.171088 1.000000 -0.427950
v 0.248381 1.000000 -0.385145
v 0.316129 1.000000 -0.327539
v 0.371729 1.000000 -0.257346
v 0.413043 1.000000 -0.177263
v 0.438484 1.000000 -0.090368
v 0.447074 1.000000 -0.000000
v 0.438484 1.000000 0.090367
v 0.413043 1.000000 0.177262
v 0.371729 1.000000 0.257345
v 0.316129 1.000000 0.327538
v 0.248381 1.000000 0.385144
v 0.171088 1.000000 0.427950
v 0.087220 1.000000 0.454309
v -0.000000 1.000000 0.463209
v -0.087220 1.000000 0.454309
v -0.171088 1.000000 0.427949
v -0.248381 1.000000 0.385144
v -0.316129 1.000000 0.327538
v -0.371729 1.000000 0.257345
v -0.413043 1.000000 0.177262
v -0.438484 1.000000 0.090367
v -0.447074 1.000000 -0.000001
v -0.438484 1.000000 -0.090368
v -0.413042 1.000000 -0.177263
v -0.371728 1.000000 -0.257346
v -0.316129 1.000000 -0.327539
v -0.248381 1.000000 -0.385145
v -0.171087 1.000000 -0.427950
v -0.087219 1.000000 -0.454309
v 0.171088 1.130282 -0.427950
v 0.087220 1.130282 -0.454309
v 0.316129 1.130282 -0.327539
v 0.248381 1.130282 -0.385145
v 0.413043 1.130282 -0.177263
v 0.371729 1.130282 -0.257346
v 0.447074 1.130282 -0.000000
v 0.438484 1.130282 -0.090368
v 0.413043 1.130282 0.177262
v 0.438484 1.130282 0.090367
v 0.316129 1.130282 0.327538
v 0.371729 1.130282 0.257345
v 0.171088 1.130282 0.427950
v 0.248381 1.130282 0.385144
v -0.000000 1.130282 0.463209
v 0.087220 1.130282 0.454309
v -0.171088 1.130282 0.427949
v -0.087220 1.130282 0.454309
v -0.316129 1.130282 0.327538
v -0.248381 1.130282 0.385144
v -0.413043 1.130282 0.177262
v -0.371729 1.130282 0.257345
v -0.447074 1.130282 -0.000001
v -0.438484 1.130282 0.090367
v -0.413042 1.130282 -0.177263
v -0.438484 1.130282 -0.090368
v -0.316129 1.130282 -0.327539
v -0.371728 1.130282 -0.257346
v -0.171087 1.130282 -0.427950
v -0.248381 1.130282 -0.385145
v 0.000000 1.130282 -0.463210
v -0.087219 1.130282 -0.454309
v 0.153485 1.130282 -0.383919
v 0.078246 1.130282 -0.407566
v 0.283603 1.130282 -0.293839
v 0.222825 1.130282 -0.345518
v 0.370545 1.130282 -0.159024
v 0.333482 1.130282 -0.230868
v 0.401075 1.130282 -0.000000
v 0.393369 1.130282 -0.081070
v 0.370545 1.130282 0.159024
v 0.393369 1.130282 0.081070
v 0.283603 1.130282 0.293838
v 0.333482 1.130282 0.230867
v 0.153485 1.130282 0.383918
v 0.222825 1.130282 0.345517
v -0.000000 1.130282 0.415550
v 0.078246 1.130282 0.407566
v -0.153485 1.130282 0.383918
v -0.078246 1.130282 0.407565
v -0.283603 1.130282 0.293838
v -0.222826 1.130282 0.345517
v -0.370545 1.130282 0.159024
v -0.333482 1.130282 0.230867
v -0.401075 1.130282 -0.000001
v -0.393369 1.130282 0.081069
v -0.370545 1.130282 -0.159025
v -0.393368 1.130282 -0.081070
v -0.283603 1.130282 -0.293839
v -0.333481 1.130282 -0.230868
v -0.153484 1.130282 -0.383919
v -0.222825 1.130282 -0.345518
v 0.000000 1.130282 -0.415551
v -0.078245 1.130282 -0.407566
vt 1.000000 1.000000
vt 0.968750 0.500000
vt 1.000000 0.500000
vt 0.968750 1.000000
vt 0.937500 0.500000
vt 0.937500 1.000000
vt 0.906250 0.500000
vt 0.906250 1.000000
vt 0.875000 0.500000
vt 0.875000 1.000000
vt 0.843750 0.500000
vt 0.843750 1.000000
vt 0.812500 0.500000
vt 0.812500 1.000000
vt 0.781250 0.500000
vt 0.781250 1.000000
vt 0.750000 0.500000
vt 0.750000 1.000000
vt 0.718750 0.500000
vt 0.718750 1.000000
vt 0.687500 0.500000
vt 0.687500 1.000000
vt 0.656250 0.500000
vt 0.656250 1.000000
vt 0.625000 0.500000
vt 0.625000 1.000000
vt 0.593750 0.500000
vt 0.593750 1.000000
vt 0.562500 0.500000
vt 0.562500 1.000000
vt 0.531250 0.500000
vt 0.531250 1.000000
vt 0.500000 0.500000
vt 0.500000 1.000000
vt 0.468750 0.500000
vt 0.468750 1.000000
vt 0.437500 0.500000
vt 0.437500 1.000000
vt 0.406250 0.500000
vt 0.406250 1.000000
vt 0.375000 0.500000
vt 0.375000 1.000000
vt 0.343750 0.500000
vt 0.343750 1.000000
vt 0.312500 0.500000
vt 0.312500 1.000000
vt 0.281250 0.500000
vt 0.281250 1.000000
vt 0.250000 0.500000
vt 0.250000 1.000000
vt 0.218750 0.500000
vt 0.218750 1.000000
vt 0.187500 0.500000
vt 0.187500 1.000000
vt 0.156250 0.500000
vt 0.156250 1.000000
vt 0.125000 0.500000
vt 0.125000 1.000000
vt 0.093750 0.500000
vt 0.093750 1.000000
vt 0.062500 0.500000
vt 0.402245 0.402245
vt 0.369618 0.429021
vt 0.097755 0.402245
vt 0.062500 1.000000
vt 0.031250 0.500000
vt 0.031250 1.000000
vt 0.000000 0.500000
vt 0.616663 0.449553
vt 0.658156 0.471731
vt 0.883337 0.449553
vt 0.250000 0.465307
vt 0.296822 0.485388
vt 0.250000 0.490000
vt 0.038830 0.292004
vt 0.014612 0.296822
vt 0.014612 0.296822
vt 0.332394 0.448917
vt 0.383337 0.449553
vt 0.341844 0.471731
vt 0.010000 0.250000
vt 0.034693 0.250000
vt 0.034693 0.250000
vt 0.449553 0.383337
vt 0.419706 0.419706
vt 0.500000 1.000000
vt 0.448917 0.332394
vt 0.485388 0.296822
vt 0.471731 0.341844
vt 0.369618 0.429021
vt 0.461170 0.207996
vt 0.490000 0.250000
vt 0.465307 0.250000
vt 0.167606 0.448917
vt 0.130382 0.429021
vt 0.130382 0.429021
vt 0.429021 0.130382
vt 0.471731 0.158156
vt 0.448917 0.167606
vt 0.038830 0.207996
vt 0.014611 0.203179
vt 0.014611 0.203179
vt 0.369618 0.070979
vt 0.419706 0.080294
vt 0.402245 0.097755
vt 0.028269 0.158156
vt 0.051083 0.167606
vt 0.051083 0.167606
vt 0.292004 0.038830
vt 0.341844 0.028269
vt 0.332394 0.051083
vt 0.250000 1.000000
vt 0.250000 0.034693
vt 0.203178 0.014612
vt 0.250000 0.010000
vt 0.292004 0.461170
vt 0.292004 0.461170
vt 0.167606 0.051083
vt 0.116663 0.050447
vt 0.158156 0.028269
vt 0.070979 0.369618
vt 0.070979 0.369618
vt 0.097755 0.097755
vt 0.050447 0.116663
vt 0.080294 0.080294
vt 0.070979 0.130382
vt 0.050447 0.116663
vt 0.812500 1.000000
vt 0.097755 0.097755
vt 0.028269 0.341844
vt 0.051083 0.332394
vt 0.000000 1.000000
vt 0.000000 1.000000
vt 0.080295 0.419706
vt 0.038830 0.292004
vt 0.207996 0.461170
vt 0.158156 0.471731
vt 0.130382 0.070979
vt 0.116663 0.050447
vt 0.341844 0.471731
vt 0.296822 0.485388
vt 0.419706 0.419706
vt 0.383337 0.449553
vt 0.429021 0.369618
vt 0.471731 0.341844
vt 0.449553 0.383337
vt 0.461170 0.292004
vt 0.490000 0.250000
vt 0.485388 0.296822
vt 0.448917 0.167606
vt 0.485388 0.203178
vt 0.461170 0.207996
vt 0.402245 0.097755
vt 0.449553 0.116663
vt 0.429021 0.130382
vt 0.332394 0.051083
vt 0.383337 0.050447
vt 0.369618 0.070979
vt 0.250000 0.034693
vt 0.296822 0.014612
vt 0.292004 0.038830
vt 0.207996 0.038830
vt 0.158156 0.028269
vt 0.203178 0.014612
vt 0.130382 0.070979
vt 0.080294 0.080294
vt 0.070979 0.130382
vt 0.028269 0.158156
vt 0.038830 0.207996
vt 0.010000 0.250000
vt 0.051083 0.332394
vt 0.097755 0.402245
vt 0.050447 0.383337
vt 0.167606 0.448917
vt 0.116663 0.449553
vt 0.250000 0.465307
vt 0.203179 0.485389
vt 0.207996 0.461170
vt 0.429021 0.369618
vt 0.750000 1.000000
vt 0.050447 0.383337
vt 0.461170 0.292004
vt 0.187500 1.000000
vt 0.332394 0.448917
vt 0.116663 0.449553
vt 0.437500 1.000000
vt 0.402245 0.402245
vt 0.203179 0.485389
vt 0.687500 1.000000
vt 0.448917 0.332394
vt 0.125000 1.000000
vt 0.465307 0.250000
vt 0.937500 1.000000
vt 0.485388 0.203178
vt 0.375000 1.000000
vt 0.449553 0.116663
vt 0.207996 0.038830
vt 0.625000 1.000000
vt 0.383337 0.050447
vt 0.062500 1.000000
vt 0.875000 1.000000
vt 0.296822 0.014612
vt 0.312500 1.000000
vt 0.562500 1.000000
vt 0.167606 0.051083
vt 0.703179 0.485389
vt 0.750000 0.490000
vt 0.796822 0.485388
vt 0.841844 0.471731
vt 0.919706 0.419706
vt 0.580295 0.419706
vt 0.949553 0.383337
vt 0.550447 0.383337
vt 0.971731 0.341844
vt 0.985388 0.296822
vt 0.528269 0.341844
vt 0.990000 0.250000
vt 0.510000 0.250000
vt 0.985388 0.203178
vt 0.514611 0.203179
vt 0.971731 0.158156
vt 0.949553 0.116663
vt 0.528269 0.158156
vt 0.919706 0.080294
vt 0.580294 0.080294
vt 0.883337 0.050447
vt 0.616663 0.050447
vt 0.841844 0.028269
vt 0.796822 0.014612
vt 0.658156 0.028269
vt 0.750000 0.010000
vt 0.703178 0.014612
vt 0.550447 0.116663
vt 0.514612 0.296822
vt 0.531250 1.000000
vt 0.281250 1.000000
vt 0.843750 1.000000
vt 0.031250 1.000000
vt 0.471731 0.158156
vt 0.419706 0.080294
vt 0.341844 0.028269
vt 0.250000 0.010000
vt 0.028269 0.341844
vt 0.080295 0.419706
vt 0.158156 0.471731
vt 0.250000 0.490000
vt 0.781250 1.000000
vt 0.218750 1.000000
vt 0.468750 1.000000
vt 0.718750 1.000000
vt 0.156250 1.000000
vt 0.968750 1.000000
vt 0.406250 1.000000
vt 0.656250 1.000000
vt 0.093750 1.000000
vt 0.906250 1.000000
vt 0.343750 1.000000
vt 0.593750 1.000000
vn 0.1015 0.0000 -0.9948
vn 0.2998 0.0000 -0.9540
vn 0.4845 0.0000 -0.8748
vn 0.6478 0.0000 -0.7618
vn 0.7839 0.0000 -0.6209
vn 0.8887 0.0000 -0.4585
vn 0.9597 0.0000 -0.2810
vn 0.9955 0.0000 -0.0946
vn 0.9955 0.0000 0.0946
vn 0.9597 0.0000 0.2810
vn 0.8887 0.0000 0.4585
vn 0.7839 0.0000 0.6209
vn 0.6478 0.0000 0.7618
vn 0.4845 0.0000 0.8748
vn 0.2998 0.0000 0.9540
vn 0.1015 0.0000 0.9948
vn -0.1015 0.0000 0.9948
vn -0.2998 0.0000 0.9540
vn -0.4845 0.0000 0.8748
vn -0.6478 0.0000 0.7618
vn -0.7839 0.0000 0.6209
vn -0.8887 0.0000 0.4585
vn -0.9597 0.0000 0.2810
vn -0.9955 0.0000 0.0946
vn -0.9955 0.0000 -0.0946
vn -0.9597 0.0000 -0.2810
vn -0.8887 0.0000 -0.4585
vn -0.7839 0.0000 -0.6209
vn -0.6478 0.0000 -0.7618
vn -0.4845 0.0000 -0.8748
vn 0.0000 1.0000 0.0000
vn -0.2998 0.0000 -0.9540
vn -0.1015 0.0000 -0.9948
vn 0.0000 -1.0000 0.0000
vn -0.2019 0.0000 0.9794
vn 0.0000 0.0000 -1.0000
vn 0.2018 0.0000 0.9794
vn -0.3944 0.0000 -0.9189
vn 0.5692 0.0000 0.8222
vn -0.7195 0.0000 -0.6945
vn 0.8404 0.0000 0.5420
vn 0.3944 0.0000 -0.9189
vn 1.0000 0.0000 0.0000
vn -0.5692 0.0000 0.8222
vn -0.9821 0.0000 -0.1885
vn 0.7195 0.0000 -0.6945
vn 0.9285 0.0000 0.3712
vn -0.8404 0.0000 0.5420
vn -0.8404 0.0000 -0.5420
vn 0.9285 0.0000 -0.3712
vn 0.7195 0.0000 0.6945
vn -0.9821 0.0000 0.1885
vn -0.5692 0.0000 -0.8222
vn 0.3944 0.0000 0.9189
vn -0.2018 0.0000 -0.9794
vn 0.0000 0.0000 1.0000
vn 0.2018 0.0000 -0.9794
vn -0.3944 0.0000 0.9189
vn 0.5692 0.0000 -0.8222
vn -0.7195 0.0000 0.6945
vn 0.8404 0.0000 -0.5420
vn -0.9285 0.0000 0.3712
vn 0.9821 0.0000 -0.1885
vn -1.0000 0.0000 -0.0000
vn 0.9821 0.0000 0.1885
vn -0.9285 0.0000 -0.3712
usemtl None
s off
f 66/1/1 3/2/1 1/3/1
f 65/4/2 5/5/2 3/2/2
f 67/6/3 7/7/3 5/5/3
f 68/8/4 9/9/4 7/7/4
f 69/10/5 11/11/5 9/9/5
f 70/12/6 13/13/6 11/11/6
f 71/14/7 15/15/7 13/13/7
f 72/16/8 17/17/8 15/15/8
f 73/18/9 19/19/9 17/17/9
f 74/20/10 21/21/10 19/19/10
f 75/22/11 23/23/11 21/21/11
f 76/24/12 25/25/12 23/23/12
f 77/26/13 27/27/13 25/25/13
f 78/28/14 29/29/14 27/27/14
f 79/30/15 31/31/15 29/29/15
f 80/32/16 33/33/16 31/31/16
f 81/34/17 35/35/17 33/33/17
f 82/36/18 37/37/18 35/35/18
f 83/38/19 39/39/19 37/37/19
f 84/40/20 41/41/20 39/39/20
f 85/42/21 43/43/21 41/41/21
f 86/44/22 45/45/22 43/43/22
f 87/46/23 47/47/23 45/45/23
f 88/48/24 49/49/24 47/47/24
f 89/50/25 51/51/25 49/49/25
f 90/52/26 53/53/26 51/51/26
f 91/54/27 55/55/27 53/53/27
f 92/56/28 57/57/28 55/55/28
f 93/58/29 59/59/29 57/57/29
f 94/60/30 61/61/30 59/59/30
f 10/62/31 8/63/31 58/64/31
f 95/65/32 63/66/32 61/61/32
f 96/67/33 1/68/33 63/66/33
f 59/69/34 61/70/34 7/71/34
f 2/72/31 65/73/31 66/74/31
f 52/75/35 122/76/35 90/77/35
f 6/78/31 68/79/31 67/80/31
f 89/81/36 151/82/36 50/83/36
f 10/62/31 70/84/31 69/85/31
f 80/32/16 111/86/16 81/34/16
f 14/87/31 72/88/31 71/89/31
f 10/62/20 132/90/20 8/63/20
f 20/91/31 73/92/31 18/93/31
f 62/94/14 158/95/14 60/96/14
f 24/97/31 75/98/31 22/99/31
f 48/100/37 120/101/37 88/102/37
f 28/103/31 77/104/31 26/105/31
f 87/106/38 149/107/38 46/108/38
f 32/109/31 79/110/31 30/111/31
f 88/48/24 119/112/24 89/50/24
f 34/113/31 82/114/31 81/115/31
f 6/78/18 130/116/18 4/117/18
f 38/118/31 84/119/31 83/120/31
f 58/64/12 156/121/12 56/122/12
f 42/123/31 86/124/31 85/125/31
f 44/126/39 118/127/39 86/124/39
f 46/108/31 88/102/31 87/106/31
f 70/12/6 101/128/6 71/14/6
f 52/75/31 89/81/31 50/83/31
f 85/125/40 147/129/40 42/123/40
f 56/122/31 91/130/31 54/131/31
f 96/67/33 127/132/33 66/133/33
f 60/96/31 93/134/31 58/64/31
f 54/131/10 154/135/10 52/75/10
f 64/136/31 95/137/31 62/94/31
f 40/138/41 116/139/41 84/119/41
f 130/116/31 97/140/31 98/141/31
f 132/90/31 99/142/31 100/143/31
f 134/144/31 101/145/31 102/146/31
f 136/147/31 103/148/31 104/149/31
f 137/150/31 106/151/31 138/152/31
f 139/153/31 108/154/31 140/155/31
f 141/156/31 110/157/31 142/158/31
f 143/159/31 112/160/31 144/161/31
f 146/162/31 113/163/31 114/164/31
f 148/165/31 115/166/31 116/139/31
f 150/167/31 117/168/31 118/127/31
f 152/169/31 119/170/31 120/101/31
f 153/171/31 122/76/31 154/135/31
f 155/172/31 124/173/31 156/121/31
f 157/174/31 126/175/31 158/95/31
f 159/176/31 128/177/31 160/178/31
f 2/72/16 160/178/16 64/136/16
f 14/87/22 134/144/22 12/179/22
f 91/130/42 153/171/42 54/131/42
f 72/16/8 103/180/8 73/18/8
f 66/74/43 159/176/43 2/72/43
f 56/122/44 124/173/44 92/181/44
f 4/117/45 98/141/45 65/73/45
f 18/93/24 136/147/24 16/182/24
f 90/52/26 121/183/26 91/54/26
f 93/134/46 155/172/46 58/64/46
f 67/80/47 129/184/47 6/78/47
f 60/96/48 126/175/48 94/185/48
f 8/63/49 100/143/49 68/79/49
f 22/99/26 138/152/26 20/91/26
f 82/36/18 113/186/18 83/38/18
f 95/137/50 157/174/50 62/94/50
f 69/85/51 131/187/51 10/62/51
f 64/136/52 128/177/52 96/188/52
f 12/179/53 102/146/53 70/84/53
f 26/105/28 140/155/28 24/97/28
f 74/20/10 105/189/10 75/22/10
f 71/89/54 133/190/54 14/87/54
f 16/182/55 104/149/55 72/88/55
f 30/111/30 142/158/30 28/103/30
f 92/56/28 123/191/28 93/58/28
f 73/92/56 135/192/56 18/93/56
f 65/4/2 97/193/2 67/6/2
f 20/91/57 106/151/57 74/194/57
f 34/113/33 144/161/33 32/109/33
f 84/40/20 115/195/20 85/42/20
f 75/98/58 137/150/58 22/99/58
f 24/97/59 108/154/59 76/196/59
f 38/118/2 146/162/2 36/197/2
f 76/24/12 107/198/12 77/26/12
f 77/104/60 139/153/60 26/105/60
f 28/103/61 110/157/61 78/199/61
f 42/123/4 148/165/4 40/138/4
f 94/60/30 125/200/30 95/65/30
f 68/8/4 99/201/4 69/10/4
f 79/110/62 141/156/62 30/111/62
f 32/109/63 112/160/63 80/202/63
f 46/108/6 150/167/6 44/126/6
f 86/44/22 117/203/22 87/46/22
f 81/115/64 143/159/64 34/113/64
f 36/197/65 114/164/65 82/114/65
f 50/83/8 152/169/8 48/100/8
f 78/28/14 109/204/14 79/30/14
f 83/120/66 145/205/66 38/118/66
f 66/1/1 65/4/1 3/2/1
f 65/4/2 67/6/2 5/5/2
f 67/6/3 68/8/3 7/7/3
f 68/8/4 69/10/4 9/9/4
f 69/10/5 70/12/5 11/11/5
f 70/12/6 71/14/6 13/13/6
f 71/14/7 72/16/7 15/15/7
f 72/16/8 73/18/8 17/17/8
f 73/18/9 74/20/9 19/19/9
f 74/20/10 75/22/10 21/21/10
f 75/22/11 76/24/11 23/23/11
f 76/24/12 77/26/12 25/25/12
f 77/26/13 78/28/13 27/27/13
f 78/28/14 79/30/14 29/29/14
f 79/30/15 80/32/15 31/31/15
f 80/32/16 81/34/16 33/33/16
f 81/34/17 82/36/17 35/35/17
f 82/36/18 83/38/18 37/37/18
f 83/38/19 84/40/19 39/39/19
f 84/40/20 85/42/20 41/41/20
f 85/42/21 86/44/21 43/43/21
f 86/44/22 87/46/22 45/45/22
f 87/46/23 88/48/23 47/47/23
f 88/48/24 89/50/24 49/49/24
f 89/50/25 90/52/25 51/51/25
f 90/52/26 91/54/26 53/53/26
f 91/54/27 92/56/27 55/55/27
f 92/56/28 93/58/28 57/57/28
f 93/58/29 94/60/29 59/59/29
f 94/60/30 95/65/30 61/61/30
f 6/78/31 4/117/31 62/94/31
f 4/117/31 2/72/31 64/136/31
f 62/94/31 4/117/31 64/136/31
f 62/94/31 60/96/31 6/78/31
f 60/96/31 58/64/31 8/63/31
f 6/78/31 60/96/31 8/63/31
f 58/64/31 56/122/31 10/62/31
f 56/122/31 54/131/31 12/179/31
f 10/62/31 56/122/31 12/179/31
f 54/131/31 52/75/31 16/182/31
f 52/75/31 50/83/31 18/93/31
f 50/83/31 48/100/31 20/91/31
f 48/100/31 46/108/31 22/99/31
f 46/108/31 44/126/31 22/99/31
f 44/126/31 42/123/31 24/97/31
f 22/99/31 44/126/31 24/97/31
f 42/123/31 40/138/31 26/105/31
f 40/138/31 38/118/31 28/103/31
f 26/105/31 40/138/31 28/103/31
f 38/118/31 36/197/31 30/111/31
f 36/197/31 34/113/31 32/109/31
f 30/111/31 36/197/31 32/109/31
f 30/111/31 28/103/31 38/118/31
f 26/105/31 24/97/31 42/123/31
f 22/99/31 20/91/31 48/100/31
f 20/91/31 18/93/31 50/83/31
f 18/93/31 16/182/31 52/75/31
f 16/182/31 14/87/31 54/131/31
f 14/87/31 12/179/31 54/131/31
f 95/65/32 96/67/32 63/66/32
f 96/67/33 66/133/33 1/68/33
f 63/206/34 1/207/34 3/208/34
f 3/208/34 5/209/34 63/206/34
f 5/209/34 7/71/34 61/70/34
f 63/206/34 5/209/34 61/70/34
f 7/71/34 9/210/34 57/211/34
f 9/210/34 11/212/34 55/213/34
f 11/212/34 13/214/34 55/213/34
f 13/214/34 15/215/34 53/216/34
f 55/213/34 13/214/34 53/216/34
f 15/215/34 17/217/34 49/218/34
f 17/217/34 19/219/34 47/220/34
f 19/219/34 21/221/34 47/220/34
f 21/221/34 23/222/34 45/223/34
f 47/220/34 21/221/34 45/223/34
f 23/222/34 25/224/34 41/225/34
f 25/224/34 27/226/34 39/227/34
f 27/226/34 29/228/34 39/227/34
f 29/228/34 31/229/34 37/230/34
f 39/227/34 29/228/34 37/230/34
f 31/229/34 33/231/34 35/232/34
f 35/232/34 37/230/34 31/229/34
f 39/227/34 41/225/34 25/224/34
f 41/225/34 43/233/34 23/222/34
f 43/233/34 45/223/34 23/222/34
f 47/220/34 49/218/34 17/217/34
f 49/218/34 51/234/34 15/215/34
f 51/234/34 53/216/34 15/215/34
f 55/213/34 57/211/34 9/210/34
f 57/211/34 59/69/34 7/71/34
f 2/72/31 4/117/31 65/73/31
f 52/75/35 154/135/35 122/76/35
f 6/78/31 8/63/31 68/79/31
f 89/81/36 119/170/36 151/82/36
f 10/62/31 12/179/31 70/84/31
f 80/32/16 112/235/16 111/86/16
f 14/87/31 16/182/31 72/88/31
f 10/62/20 131/187/20 132/90/20
f 20/91/31 74/194/31 73/92/31
f 62/94/14 157/174/14 158/95/14
f 24/97/31 76/196/31 75/98/31
f 48/100/37 152/169/37 120/101/37
f 28/103/31 78/199/31 77/104/31
f 87/106/38 117/168/38 149/107/38
f 32/109/31 80/202/31 79/110/31
f 88/48/24 120/236/24 119/112/24
f 34/113/31 36/197/31 82/114/31
f 6/78/18 129/184/18 130/116/18
f 38/118/31 40/138/31 84/119/31
f 58/64/12 155/172/12 156/121/12
f 42/123/31 44/126/31 86/124/31
f 44/126/39 150/167/39 118/127/39
f 46/108/31 48/100/31 88/102/31
f 70/12/6 102/237/6 101/128/6
f 52/75/31 90/77/31 89/81/31
f 85/125/40 115/166/40 147/129/40
f 56/122/31 92/181/31 91/130/31
f 96/67/33 128/238/33 127/132/33
f 60/96/31 94/185/31 93/134/31
f 54/131/10 153/171/10 154/135/10
f 64/136/31 96/188/31 95/137/31
f 40/138/41 148/165/41 116/139/41
f 130/116/31 129/184/31 97/140/31
f 132/90/31 131/187/31 99/142/31
f 134/144/31 133/190/31 101/145/31
f 136/147/31 135/192/31 103/148/31
f 137/150/31 105/239/31 106/151/31
f 139/153/31 107/240/31 108/154/31
f 141/156/31 109/241/31 110/157/31
f 143/159/31 111/242/31 112/160/31
f 146/162/31 145/205/31 113/163/31
f 148/165/31 147/129/31 115/166/31
f 150/167/31 149/107/31 117/168/31
f 152/169/31 151/82/31 119/170/31
f 153/171/31 121/243/31 122/76/31
f 155/172/31 123/244/31 124/173/31
f 157/174/31 125/245/31 126/175/31
f 159/176/31 127/246/31 128/177/31
f 2/72/16 159/176/16 160/178/16
f 14/87/22 133/190/22 134/144/22
f 91/130/42 121/243/42 153/171/42
f 72/16/8 104/247/8 103/180/8
f 66/74/43 127/246/43 159/176/43
f 56/122/44 156/121/44 124/173/44
f 4/117/45 130/116/45 98/141/45
f 18/93/24 135/192/24 136/147/24
f 90/52/26 122/248/26 121/183/26
f 93/134/46 123/244/46 155/172/46
f 67/80/47 97/140/47 129/184/47
f 60/96/48 158/95/48 126/175/48
f 8/63/49 132/90/49 100/143/49
f 22/99/26 137/150/26 138/152/26
f 82/36/18 114/249/18 113/186/18
f 95/137/50 125/245/50 157/174/50
f 69/85/51 99/142/51 131/187/51
f 64/136/52 160/178/52 128/177/52
f 12/179/53 134/144/53 102/146/53
f 26/105/28 139/153/28 140/155/28
f 74/20/10 106/250/10 105/189/10
f 71/89/54 101/145/54 133/190/54
f 16/182/55 136/147/55 104/149/55
f 30/111/30 141/156/30 142/158/30
f 92/56/28 124/251/28 123/191/28
f 73/92/56 103/148/56 135/192/56
f 65/4/2 98/252/2 97/193/2
f 20/91/57 138/152/57 106/151/57
f 34/113/33 143/159/33 144/161/33
f 84/40/20 116/253/20 115/195/20
f 75/98/58 105/239/58 137/150/58
f 24/97/59 140/155/59 108/154/59
f 38/118/2 145/205/2 146/162/2
f 76/24/12 108/254/12 107/198/12
f 77/104/60 107/240/60 139/153/60
f 28/103/61 142/158/61 110/157/61
f 42/123/4 147/129/4 148/165/4
f 94/60/30 126/255/30 125/200/30
f 68/8/4 100/256/4 99/201/4
f 79/110/62 109/241/62 141/156/62
f 32/109/63 144/161/63 112/160/63
f 46/108/6 149/107/6 150/167/6
f 86/44/22 118/257/22 117/203/22
f 81/115/64 111/242/64 143/159/64
f 36/197/65 146/162/65 114/164/65
f 50/83/8 151/82/8 152/169/8
f 78/28/14 110/258/14 109/204/14
f 83/120/66 113/163/66 145/205/66
